<?xml version="1.0" encoding="UTF-8"?>
<svg width="311px" height="62px" viewBox="0 0 311 62" version="1.1" xmlns="http://www.w3.org/2000/svg" xmlns:xlink="http://www.w3.org/1999/xlink">
    <title>square1_wcolor</title>
    <defs>
        <radialGradient cx="89.7499613%" cy="1.998569%" fx="89.7499613%" fy="1.998569%" r="231.373971%" gradientTransform="translate(0.897500,0.019986),scale(0.951042,1.000000),rotate(139.215205),translate(-0.897500,-0.019986)" id="radialGradient-1">
            <stop stop-color="#32C5FF" offset="0%"></stop>
            <stop stop-color="#B620E0" offset="51.2583893%"></stop>
            <stop stop-color="#F7B500" offset="100%"></stop>
        </radialGradient>
    </defs>
    <g id="Page-1" stroke="none" stroke-width="1" fill="none" fill-rule="evenodd">
        <g id="miblock-alt-copy" transform="translate(-116.000000, -114.000000)">
            <g id="square1_wcolor" transform="translate(116.000000, 114.000000)">
                <g id="Group" fill="url(#radialGradient-1)">
                    <path d="M48.5214418,2.46167884 L62.1582408,0.32558869 C63.1403772,0.171745263 64.0612708,0.843209387 64.2151142,1.82534579 C64.2295488,1.91749642 64.2367989,2.01062964 64.2367989,2.10390395 L64.2367989,51.5312025 C64.2367989,52.4177686 63.5912428,53.1723176 62.7153571,53.3095177 L49.0785581,55.4456079 C48.0964217,55.5994513 47.1755281,54.9279872 47.0216847,53.9458508 C47.0072501,53.8537001 47,53.7605669 47,53.6672926 L47,4.2399941 C47,3.35342794 47.6455561,2.59887898 48.5214418,2.46167884 Z M40.6151136,16.8253453 C40.6295482,16.9174959 40.6367983,17.0106292 40.6367983,17.1039035 L40.6367983,56.9803849 C40.6367983,57.7124881 40.5709975,57.9786496 40.4422608,58.2536291 C40.313524,58.5286085 40.1218511,58.7526426 39.8701069,58.9223828 C39.6183627,59.092123 39.3655907,59.1983207 38.6423072,59.311617 L25.4785575,61.373608 C24.4964211,61.5274514 23.5755275,60.8559873 23.4216841,59.8738509 C23.4072494,59.7817002 23.3999994,59.688567 23.3999994,59.5952927 L23.3999994,19.7188113 C23.3999994,18.986708 23.4658001,18.7205466 23.5945369,18.4455671 C23.7232737,18.1705876 23.9149465,17.9465536 24.1666907,17.7768134 C24.4184349,17.6070732 24.6712069,17.5008755 25.3944905,17.3875792 L38.5582402,15.3255882 C39.5403766,15.1717448 40.4612702,15.8432089 40.6151136,16.8253453 Z M17.2151142,8.52170123 C17.2295488,8.61385187 17.2367989,8.70698509 17.2367989,8.8002594 L17.2367989,50.8475442 C17.2367989,51.5796475 17.1709982,51.8458089 17.0422614,52.1207884 C16.9135246,52.3957679 16.7218517,52.6198019 16.4701076,52.7895421 C16.2183634,52.9592823 15.9655914,53.0654801 15.2423078,53.1787764 L2.07855812,55.2407673 C1.09642172,55.3946107 0.175528116,54.7231466 0.0216846887,53.7410102 C0.0072500651,53.6488596 2.01849969e-13,53.5557263 2.0250468e-13,53.462452 L2.01963707e-13,11.4151672 C2.02790844e-13,10.683064 0.0658007416,10.4169025 0.194537532,10.1419231 C0.323274322,9.86694357 0.514947161,9.64290954 0.766691355,9.47316932 C1.01843555,9.3034291 1.27120755,9.19723138 1.99449108,9.08393508 L15.1582408,7.02194414 C16.1403772,6.86810071 17.0612708,7.53956483 17.2151142,8.52170123 Z" id="Rectangle-2"></path>
                </g>
                <path d="M116.123935,44.4188065 L116.265109,29.4453096 L116.265109,29.4453096 C116.265109,27.3372883 116.804968,25.5891732 117.884687,24.200964 C119.581387,22.504264 121.380917,21.655914 123.283278,21.655914 C125.237054,21.655914 126.728093,22.2728958 127.756396,23.5068595 C128.527623,24.9978989 128.913237,26.9002595 128.913237,29.2139414 L128.913237,48.5769373 C128.913237,49.6815068 129.808667,50.5769373 130.913237,50.5769373 L140.024101,50.5769373 C141.12867,50.5769373 142.024101,49.6815068 142.024101,48.5769373 L142.024101,29.5224323 L142.024101,29.5224323 C142.024101,27.3629959 142.56396,25.5891732 143.643678,24.200964 C145.340378,22.504264 147.114201,21.655914 148.965146,21.655914 C149.99345,21.655914 150.893215,21.7973056 151.664442,22.080089 C152.435669,22.3628723 153.052651,22.8384625 153.515387,23.5068595 C153.926709,24.1238413 154.209492,24.93363 154.363737,25.9362254 C154.517983,26.9388209 154.595106,28.0313929 154.595106,29.2139414 L154.595106,48.5769373 C154.595106,49.6815068 155.490536,50.5769373 156.595106,50.5769373 L165.783092,50.5769373 C166.887662,50.5769373 167.783092,49.6815068 167.783092,48.5769373 L167.783092,25.5891732 L167.783092,25.5891732 C167.783092,24.2523792 167.654554,22.7356322 167.397479,21.0389321 C167.140403,19.3422321 166.600544,17.77407 165.777901,16.3344457 C164.955259,14.8434063 163.66988,13.6094426 161.921765,12.6325547 C160.17365,11.6556668 157.654307,11.1672228 154.363737,11.1672228 C152.101471,11.1672228 149.762081,11.7584971 147.345569,12.9410456 C144.929057,14.1235941 142.821036,15.9745396 141.021505,18.4938821 C139.993202,15.768879 138.386479,13.8665184 136.201335,12.7868001 C134.016191,11.7070819 131.483995,11.1672228 128.604746,11.1672228 C126.291064,11.1672228 123.964528,11.7456433 121.625139,12.9024842 C119.28575,14.0593252 117.447658,15.6146335 116.110864,17.5684093 L116.110864,13.9384501 C116.110864,12.8338806 115.215433,11.9384501 114.110864,11.9384501 L105,11.9384501 C103.895431,11.9384501 103,12.8338806 103,13.9384501 L103,47.7206828 C103,48.8252523 103.895431,49.7206828 105,49.7206828 C105.233294,49.7206828 105.464789,49.6798656 105.684015,49.6000774 L114.808039,46.2793453 C115.591654,45.9941448 116.116073,45.2526711 116.123935,44.4188065 Z M190.148684,48.5769373 L190.148684,22.5699119 C190.148684,21.4653424 189.253253,20.5699119 188.148684,20.5699119 C187.924532,20.5699119 187.701976,20.607593 187.490317,20.6813799 L178.533698,23.8037736 C177.730321,24.0838414 177.192065,24.8415101 177.192065,25.6923056 L177.192065,48.5769373 C177.192065,49.6815068 178.087496,50.5769373 179.192065,50.5769373 L188.148684,50.5769373 C189.253253,50.5769373 190.148684,49.6815068 190.148684,48.5769373 Z M177.192065,10 L177.192065,16.8523852 C177.192065,17.9569547 178.087496,18.8523852 179.192065,18.8523852 C179.410618,18.8523852 179.627693,18.8165629 179.834658,18.7463426 L188.791276,15.70749 C189.602767,15.4321628 190.148684,14.6704585 190.148684,13.8135326 L190.148684,10 C190.148684,8.8954305 189.253253,8 188.148684,8 L179.192065,8 C178.087496,8 177.192065,8.8954305 177.192065,10 Z M210.817575,48.5769373 L210.817575,29.4453096 L210.817575,29.4453096 C210.817575,27.3372883 211.357434,25.5891732 212.437152,24.200964 C214.133852,22.504264 215.933383,21.655914 217.835743,21.655914 C219.789519,21.655914 221.280559,22.2728958 222.308862,23.5068595 C223.080089,24.9978989 223.465703,26.9002595 223.465703,29.2139414 L223.465703,48.5769373 C223.465703,49.6815068 224.361133,50.5769373 225.465703,50.5769373 L234.576567,50.5769373 C235.681136,50.5769373 236.576567,49.6815068 236.576567,48.5769373 L236.576567,29.5224323 L236.576567,29.5224323 C236.576567,27.3629959 237.116426,25.5891732 238.196144,24.200964 C239.892844,22.504264 241.666667,21.655914 243.517612,21.655914 C244.545915,21.655914 245.44568,21.7973056 246.216908,22.080089 C246.988135,22.3628723 247.605117,22.8384625 248.067853,23.5068595 C248.479174,24.1238413 248.761958,24.93363 248.916203,25.9362254 C249.070449,26.9388209 249.147571,28.0313929 249.147571,29.2139414 L249.147571,48.5769373 C249.147571,49.6815068 250.043002,50.5769373 251.147571,50.5769373 L260.335558,50.5769373 C261.440128,50.5769373 262.335558,49.6815068 262.335558,48.5769373 L262.335558,25.5891732 L262.335558,25.5891732 C262.335558,24.2523792 262.20702,22.7356322 261.949944,21.0389321 C261.692869,19.3422321 261.15301,17.77407 260.330367,16.3344457 C259.507725,14.8434063 258.222346,13.6094426 256.474231,12.6325547 C254.726115,11.6556668 252.206773,11.1672228 248.916203,11.1672228 C246.653936,11.1672228 244.314547,11.7584971 241.898035,12.9410456 C239.481523,14.1235941 237.373501,15.9745396 235.573971,18.4938821 C234.545668,15.768879 232.938945,13.8665184 230.753801,12.7868001 C228.568657,11.7070819 226.03646,11.1672228 223.157212,11.1672228 C220.84353,11.1672228 218.516994,11.7456433 216.177605,12.9024842 C213.838215,14.0593252 212.000124,15.6146335 210.66333,17.5684093 L210.66333,15.0659141 C210.66333,13.9613446 209.767899,13.0659141 208.66333,13.0659141 C208.432483,13.0659141 208.203378,13.1058796 207.986166,13.1840403 L198.875302,16.4624475 C198.081643,16.7480338 197.552466,17.5008438 197.552466,18.3443213 L197.552466,48.5769373 C197.552466,49.6815068 198.447896,50.5769373 199.552466,50.5769373 L208.817575,50.5769373 C209.922145,50.5769373 210.817575,49.6815068 210.817575,48.5769373 Z M289.637004,51.3481646 C296.218144,51.3481646 301.423928,49.445804 305.254357,45.6410827 C309.084786,41.8363614 311,37.0290446 311,31.2191324 C311,25.2549747 309.161908,20.3962427 305.485725,16.6429366 C301.809541,12.8896305 296.526635,11.0129774 289.637004,11.0129774 C285.163886,11.0129774 281.333457,11.9127426 278.145717,13.7122729 C274.957978,15.5118032 272.515758,17.9411692 270.819058,21.0003708 C269.122358,24.0595724 268.274008,27.542949 268.274008,31.4505006 C268.274008,37.5689037 270.176369,42.4147819 273.98109,45.988135 C277.785811,49.5614881 283.004449,51.3481646 289.637004,51.3481646 Z M289.79125,41.0908417 C287.066246,41.0908417 285.035348,40.2039303 283.698554,38.4301075 C282.36176,36.6562848 281.693363,34.278334 281.693363,31.2962551 C281.693363,28.5198369 282.323199,26.1675936 283.58287,24.2395254 C284.842541,22.3114572 286.886293,21.3474231 289.714127,21.3474231 C292.593375,21.3474231 294.637128,22.3114572 295.845384,24.2395254 C297.05364,26.1675936 297.657768,28.5198369 297.657768,31.2962551 C297.657768,34.0726733 297.027932,36.399209 295.768261,38.2758621 C294.50859,40.1525151 292.516253,41.0908417 289.79125,41.0908417 Z" id="mimo" fill="#FFFFFF" fill-rule="nonzero"></path>
            </g>
        </g>
    </g>
</svg>